<svg width="42" height="42" viewBox="0 0 42 42" fill="none" xmlns="http://www.w3.org/2000/svg">
<path d="M12.153 29.5136H24.3057V26.0414H12.153V29.5136ZM12.153 22.5691H29.5141V19.0969H12.153V22.5691ZM12.153 15.6247H29.5141V12.1525H12.153V15.6247ZM8.68072 36.4581C7.72586 36.4581 6.90844 36.1181 6.22846 35.4381C5.54848 34.7581 5.2085 33.9407 5.2085 32.9858V8.68023C5.2085 7.72537 5.54848 6.90795 6.22846 6.22797C6.90844 5.548 7.72586 5.20801 8.68072 5.20801H32.9863C33.9412 5.20801 34.7586 5.548 35.4386 6.22797C36.1186 6.90795 36.4585 7.72537 36.4585 8.68023V32.9858C36.4585 33.9407 36.1186 34.7581 35.4386 35.4381C34.7586 36.1181 33.9412 36.4581 32.9863 36.4581H8.68072ZM8.68072 32.9858H32.9863V8.68023H8.68072V32.9858Z" fill="#F2ECDE"/>
</svg>
