<svg width="42" height="42" viewBox="0 0 42 42" fill="none" xmlns="http://www.w3.org/2000/svg">
<path d="M1.73633 34.7222V29.861C1.73633 28.8772 1.98951 27.973 2.49588 27.1484C3.00224 26.3237 3.67499 25.6944 4.51411 25.2603C6.30809 24.3633 8.13101 23.6906 9.98287 23.2421C11.8347 22.7936 13.7155 22.5694 15.6252 22.5694C17.535 22.5694 19.4158 22.7936 21.2676 23.2421C23.1195 23.6906 24.9424 24.3633 26.7364 25.2603C27.5755 25.6944 28.2482 26.3237 28.7546 27.1484C29.261 27.973 29.5141 28.8772 29.5141 29.861V34.7222H1.73633ZM32.9864 34.7222V29.5138C32.9864 28.2407 32.6319 27.0181 31.923 25.8463C31.2141 24.6744 30.2086 23.6689 28.9065 22.8298C30.3822 23.0034 31.7711 23.3 33.0732 23.7195C34.3753 24.1391 35.5905 24.6527 36.719 25.2603C37.7607 25.839 38.5564 26.4828 39.1062 27.1918C39.6559 27.9007 39.9308 28.6747 39.9308 29.5138V34.7222H32.9864ZM10.7207 18.7933C9.36076 17.4334 8.68078 15.7985 8.68078 13.8888C8.68078 11.9791 9.36076 10.3442 10.7207 8.98427C12.0807 7.62431 13.7155 6.94434 15.6252 6.94434C17.535 6.94434 19.1698 7.62431 20.5298 8.98427C21.8897 10.3442 22.5697 11.9791 22.5697 13.8888C22.5697 15.7985 21.8897 17.4334 20.5298 18.7933C19.1698 20.1533 17.535 20.8332 15.6252 20.8332C13.7155 20.8332 12.0807 20.1533 10.7207 18.7933ZM30.9464 18.7933C29.5865 20.1533 27.9516 20.8332 26.0419 20.8332C25.7236 20.8332 25.3185 20.7971 24.8266 20.7247C24.3347 20.6524 23.9296 20.5728 23.6114 20.486C24.3926 19.5601 24.993 18.5329 25.4126 17.4044C25.8321 16.2759 26.0419 15.1041 26.0419 13.8888C26.0419 12.6735 25.8321 11.5016 25.4126 10.3732C24.993 9.24469 24.3926 8.21749 23.6114 7.29156C24.0165 7.14688 24.4215 7.05284 24.8266 7.00944C25.2317 6.96604 25.6368 6.94434 26.0419 6.94434C27.9516 6.94434 29.5865 7.62431 30.9464 8.98427C32.3064 10.3442 32.9864 11.9791 32.9864 13.8888C32.9864 15.7985 32.3064 17.4334 30.9464 18.7933ZM5.20855 31.2499H26.0419V29.861C26.0419 29.5427 25.9623 29.2534 25.8032 28.993C25.6441 28.7326 25.4343 28.53 25.1739 28.3853C23.6114 27.6041 22.0344 27.0181 20.443 26.6275C18.8515 26.2369 17.2456 26.0416 15.6252 26.0416C14.0049 26.0416 12.399 26.2369 10.8075 26.6275C9.21608 27.0181 7.63911 27.6041 6.07661 28.3853C5.81619 28.53 5.60641 28.7326 5.44727 28.993C5.28813 29.2534 5.20855 29.5427 5.20855 29.861V31.2499ZM18.0775 16.3411C18.7575 15.6611 19.0975 14.8437 19.0975 13.8888C19.0975 12.9339 18.7575 12.1165 18.0775 11.4365C17.3975 10.7566 16.5801 10.4166 15.6252 10.4166C14.6704 10.4166 13.853 10.7566 13.173 11.4365C12.493 12.1165 12.153 12.9339 12.153 13.8888C12.153 14.8437 12.493 15.6611 13.173 16.3411C13.853 17.021 14.6704 17.361 15.6252 17.361C16.5801 17.361 17.3975 17.021 18.0775 16.3411Z" fill="#F2ECDE"/>
</svg>
